<?xml version="1.0" encoding="UTF-8"?>
<svg width="700pt" height="700pt" version="1.1" viewBox="0 0 700 700" xmlns="http://www.w3.org/2000/svg" xmlns:xlink="http://www.w3.org/1999/xlink">
 <defs>
  <symbol id="x" overflow="visible">
   <path d="m0.015625 0h-0.015625v-0.015625h0.015625-0.015625v0.015625h0.015625z"/>
  </symbol>
  <symbol id="c" overflow="visible">
   <path d="m0.015625-0.015625h-0.015625v0.015625-0.015625h0.015625z"/>
  </symbol>
  <symbol id="a" overflow="visible">
   <path d="m0.015625-0.015625v0.015625h-0.015625 0.015625-0.015625v-0.015625h0.015625zm0 0h-0.015625z"/>
  </symbol>
  <symbol id="b" overflow="visible">
   <path d="m0.015625 0h-0.015625 0.015625zm0-0.015625v0.015625h-0.015625c0-0.0078125 0.0039062-0.015625 0.015625-0.015625h-0.015625 0.015625z"/>
  </symbol>
  <symbol id="e" overflow="visible">
   <path d="m0.015625-0.015625v0.015625h-0.015625v-0.015625z"/>
  </symbol>
  <symbol id="i" overflow="visible">
   <path d="m0.015625-0.015625v0.015625h-0.015625v-0.015625h0.015625zm0 0.015625v-0.015625h-0.015625v0.015625h0.015625z"/>
  </symbol>
  <symbol id="m" overflow="visible">
   <path d="m0.015625 0v-0.015625h-0.015625v0.015625h0.015625zm-0.015625-0.015625h0.015625v0.015625h-0.015625z"/>
  </symbol>
  <symbol id="h" overflow="visible">
   <path d="m0-0.015625 0.015625 0.015625v-0.015625 0.015625h-0.015625z"/>
  </symbol>
  <symbol id="l" overflow="visible">
   <path d="m0.015625-0.015625h-0.015625v0.015625h0.015625v-0.015625zm0 0v0.015625h-0.015625v-0.015625h0.015625z"/>
  </symbol>
  <symbol id="w" overflow="visible">
   <path d="m0-0.015625v0.015625z"/>
  </symbol>
  <symbol id="k" overflow="visible">
   <path d="m0-0.015625h0.015625v0.015625h-0.015625z"/>
  </symbol>
  <symbol id="g" overflow="visible">
   <path d="m0.015625-0.015625h-0.015625 0.015625v0.015625h-0.015625 0.015625-0.015625v-0.015625h0.015625z"/>
  </symbol>
  <symbol id="f" overflow="visible">
   <path d="m0.015625-0.015625v0.015625-0.015625h-0.015625v0.015625-0.015625h0.015625z"/>
  </symbol>
  <symbol id="j" overflow="visible">
   <path d="m0-0.015625h0.015625v0.015625h-0.015625z"/>
  </symbol>
  <symbol id="d" overflow="visible">
   <path d="m0.015625-0.015625h-0.015625v0.015625h0.015625v-0.015625zm0 0v0.015625h-0.015625v-0.015625h0.015625z"/>
  </symbol>
  <symbol id="v" overflow="visible">
   <path d="m0-0.015625 0.015625 0.015625v-0.015625 0.015625h-0.015625z"/>
  </symbol>
  <symbol id="u" overflow="visible">
   <path d="m0-0.015625v0.015625z"/>
  </symbol>
  <symbol id="t" overflow="visible">
   <path d="m0.015625-0.015625v0.015625h-0.015625v-0.015625h0.015625z"/>
  </symbol>
  <symbol id="s" overflow="visible">
   <path d="m0.015625-0.015625h0.015625v0.015625h-0.015625v-0.015625 0.015625-0.015625h-0.015625v0.015625-0.015625h0.015625z"/>
  </symbol>
  <symbol id="r" overflow="visible">
   <path d="m0.015625-0.015625v0.015625-0.015625h-0.015625v0.015625-0.015625h0.015625z"/>
  </symbol>
  <symbol id="q" overflow="visible">
   <path d="m0-0.015625h0.015625v0.015625-0.015625 0.015625l-0.015625-0.015625v0.015625z"/>
  </symbol>
  <symbol id="p" overflow="visible">
   <path d="m0 0v-0.015625 0.015625h0.015625v-0.015625 0.015625h-0.015625z"/>
  </symbol>
  <symbol id="o" overflow="visible">
   <path d="m0-0.015625v0.015625z"/>
  </symbol>
  <symbol id="n" overflow="visible">
   <path d="m0.015625-0.015625h-0.015625v0.015625h0.015625-0.015625v-0.015625h0.015625z"/>
  </symbol>
 </defs>
 <g>
  <path d="m399.18 367.12c-6.4922 5.9258-16.113 10.062-27.012 12.426-7.2148 1.5625-15.062 2.3555-22.922 2.3711-7.8438 0.015625-15.652-0.75-22.82-2.293-10.492-2.2617-19.723-6.207-26.016-11.875v2.9375c0 11.395 12.605 18.93 28.68 22.41 6.6914 1.4492 13.906 2.1797 21.086 2.1875 7.1953 0.007813 14.395-0.70312 21.043-2.1367 15.723-3.3906 27.965-10.75 27.965-21.965v-4.0664zm-120.99-324.31c0.11328 0.074219 0.22266 0.15234 0.32812 0.23438l14.672 10.48c2.9492 2.1055 5.25 3.6992 7.0859 4.9727 6.0781 4.2109 8.5977 5.957 7.8125 9.4609-0.74219 3.3164-2.9062 3.6641-6.5938 4.2617-2.6602 0.42969-7.0312 1.1328-12.344 3.5352-11.852 5.3594-20.293 11.98-24.203 18.621-1.25 2.125-2.0078 4.2188-2.2188 6.2305-0.19922 1.875 0.082032 3.7227 0.88281 5.4883 1.2773 2.8242 3.875 5.5391 7.9492 8.0078 11.047 3.8047 23.879 6.6719 36.105 8.7383 18.199 3.0781 35 4.375 42.652 4.375 8.1328 0 16.047-0.34375 23.656-1 7.9141-0.68359 15.418-1.6797 22.422-2.9492 10.355-1.8828 19.836-4.375 28.141-7.3633 1.3867-0.5 2.7422-1.0117 4.0625-1.5391 4.6094-3.3477 7.3906-6.5117 8.6836-9.4688 1.3633-3.1172 0.91406-6.1523-0.83984-9.0039-2.1172-3.4414-5.9922-6.707-10.965-9.6719-12.379-7.375-30.914-12.52-46.918-14-2.4688-0.22656-4.8711-0.36719-7.1758-0.41406-2.1758-0.042969-4.3242 0.003906-6.4102 0.14844-1.4688 0.10156-2.793-0.32422-3.8633-1.0781-0.74609-0.52344-1.3555-1.207-1.7891-1.9805-0.42969-0.76563-0.69531-1.6367-0.75781-2.5508-0.089844-1.3008 0.23828-2.6523 1.0898-3.8594l16.832-23.895 15.977-22.754c-13.547-1.8008-27.828-2.7656-42.586-2.7656-35.719 0-68.633 5.6406-95.109 15.164l21.656 13.477 0.15625-0.050782 1.6172 1.1562zm-11.863 2.7852-21.594-13.438c-2.5156 1.0664-4.957 2.1719-7.3281 3.3164-27.75 13.383-44.914 31.527-44.914 51.262s17.164 37.879 44.914 51.262c28.699 13.84 68.457 22.402 112.47 22.402 11.738 0 23.109-0.60156 33.992-1.7383 11.27-1.1797 22.062-2.9258 32.246-5.168 14.902-3.2852 28.562-7.6523 40.555-12.887 11.895-5.1953 22.105-11.242 30.211-17.938 6.6953-5.5312 11.902-11.461 15.371-17.668 3-5.3672 4.7148-10.973 4.9727-16.734l-0.007813-3.1523c-0.91406-19.105-17.887-36.621-44.871-49.637-16.785-8.0938-37.352-14.383-60.34-18.211l-12.094 17.223c21.066 2.8906 38.668 9.082 51.652 16.918 16.52 9.9727 25.844 22.809 25.844 35.328 0 4.9219-1.6133 9.6523-4.6406 14.109-2.9336 4.3203-7.1875 8.3516-12.559 12.008-4.9414 3.3633-10.887 6.4531-17.664 9.207-0.14453 0.066406-0.28906 0.125-0.4375 0.17578-1.5117 0.60938-3.0664 1.1992-4.6602 1.7734-8.7461 3.1484-18.695 5.7695-29.527 7.7383-7.457 1.3555-15.238 2.3984-23.234 3.0859-7.8672 0.67969-16.02 1.0352-24.367 1.0352-7.9336 0-25.309-1.3398-44.07-4.5078-13.062-2.207-26.832-5.3125-38.617-9.4805-13.746-4.8633-24.836-11.223-30.594-19.797-6.1523-9.1641-6.3008-20.297 2.5586-33.973 3.4805-5.3711 8.418-10.766 14.809-15.469 3.5195-2.5898 7.4922-4.9766 11.922-7.043zm-23.043-22.184c0.125-0.058593 0.25391-0.11328 0.38281-0.15625 28.707-11.746 65.785-18.832 106.21-18.832 45.297 0 86.391 8.8984 116.22 23.281 30.777 14.844 49.812 35.691 49.812 59.031 0 0.79297-0.023438 1.5859-0.066407 2.3711l0.050781 24.023h0.015626c0 23.34-19.035 44.188-49.812 59.031-13.398 6.4609-29.07 11.816-46.375 15.754v132.48c0 0.17188-0.011719 0.33984-0.027344 0.50391-0.28906 8.9141-4.75 16.219-11.926 21.945 0.046876 0.25781 0.074219 0.52734 0.074219 0.80078v160.28c0 0.25-0.023437 0.49609-0.0625 0.73828-0.36719 5.2383-2.3906 9.8164-5.6641 13.742-0.019531 1.2148-0.058594 3.4414-0.09375 5.6445-0.03125 1.8438-0.054688 3.332-0.0625 3.4258-0.97656 12.086-11.379 20.254-25.371 24.609-7.8242 2.4336-16.848 3.6914-25.902 3.7656-9.0547 0.074219-18.137-1.0273-26.074-3.3125-14.523-4.1797-25.523-12.355-26.781-24.66-0.027343-0.26953-0.0625-1.7305-0.097656-3.4844-0.039062-1.9883-0.074218-4.0664-0.097656-5.3438-3.5469-4.1602-5.6602-9.082-5.8398-14.785-0.007812-0.11328-0.011718-0.22656-0.011718-0.33984v-160.28c0-0.058594 0-0.11328 0.003906-0.17188-6.543-5.1172-10.777-11.539-11.578-19.266-0.10156-0.37109-0.16016-0.76172-0.16016-1.1641v-135.12c-17.305-3.9375-32.98-9.293-46.375-15.754-30.777-14.844-49.812-35.691-49.812-59.031v-26.398c0-23.34 19.035-44.188 49.812-59.031 3.0898-1.4922 6.3047-2.9219 9.6289-4.2891zm140.24 20.164-13.805 19.594c0.60156 0 1.2109 0.007813 1.832 0.019531 2.5078 0.050782 5.1172 0.20312 7.7852 0.44922 17.137 1.5859 37.105 7.1602 50.566 15.18 6.1367 3.6562 11.027 7.875 13.902 12.543 2.6445 4.293 3.6406 8.8867 2.4883 13.703 4.0547-2.8789 7.2148-5.9141 9.3438-9.0508 2.0352-3 3.1211-6.1094 3.1211-9.2812 0-9.4297-7.8125-19.574-21.656-27.93-12.969-7.8281-31-13.906-52.797-16.328l-0.77344 1.0977-0.003906 0.007812zm-139.33 53.707c2.3125 3.4414 5.8984 6.5078 10.441 9.25-0.57812-2.2227-0.73437-4.5-0.48828-6.8047 0.34375-3.2578 1.4883-6.5195 3.3672-9.707 4.8047-8.1602 14.613-16.039 28.09-22.137 3.2578-1.4727 6.1992-2.4062 8.7109-3.0312-1.7383-1.207-3.793-2.6406-6.1211-4.3008l-13.039-9.3125c-6.0078 2.2148-11.227 5.1016-15.648 8.3555-5.5078 4.0547-9.7344 8.6523-12.684 13.207-6.6602 10.277-6.8125 18.246-2.6289 24.48zm55.48-31.215c0.03125-0.14453 0.054687-0.26562 0.0625-0.36328-0.19531 0.92578-0.33594 1.5781-0.0625 0.36328zm99.504 282.25c-5.8711 3.0352-12.699 5.3945-20.07 7.082-8.9805 2.0547-18.816 3.125-28.676 3.2109-9.8359 0.089843-19.691-0.80078-28.73-2.668-7.8438-1.6172-15.102-3.9805-21.289-7.0859v0.45703c0 11.172 12.16 18.492 27.805 21.863 6.6367 1.4297 13.832 2.1367 21.027 2.125 7.1758-0.011719 14.398-0.75 21.098-2.1992 16.152-3.5 28.836-11.078 28.836-22.512zm-110.5-26.117c0.54297 12.832 15.551 21.344 34.746 25.301 8.4688 1.7461 17.711 2.582 26.941 2.4961 9.207-0.082031 18.406-1.0859 26.82-3.0078 18.809-4.3047 33.391-13.129 33.883-26.395-0.003906-0.070312-0.003906-0.13672-0.003906-0.20703v-130.66c-18.93 3.6797-39.582 5.707-61.191 5.707-21.609 0-42.262-2.0273-61.191-5.707v132.47zm103.02-75.766c0-1.5938 1.2891-2.8828 2.8828-2.8828s2.8828 1.2891 2.8828 2.8828v11.52c0 1.5938-1.2891 2.8828-2.8828 2.8828s-2.8828-1.2891-2.8828-2.8828zm0 29.789c0-1.5938 1.2891-2.8828 2.8828-2.8828s2.8828 1.2891 2.8828 2.8828v38.18c0 1.5938-1.2891 2.8828-2.8828 2.8828s-2.8828-1.2891-2.8828-2.8828zm-199.21-162.94c0.089844 19.676 17.234 37.758 44.91 51.109 28.699 13.84 68.457 22.402 112.47 22.402s83.766-8.5625 112.47-22.402c27.676-13.348 44.82-31.434 44.91-51.105-3.8203 5.668-8.8281 11.035-14.871 16.031-8.6992 7.1875-19.609 13.66-32.27 19.188-12.465 5.4453-26.66 9.9805-42.141 13.395-10.559 2.3281-21.68 4.1289-33.227 5.3398-11.309 1.1836-22.977 1.8047-34.871 1.8047-45.297 0-86.391-8.8984-116.22-23.281-18.484-8.9141-32.727-19.996-41.16-32.48zm113.88 413c0.007812 0.40625 0.015624 0.66797 0.019531 0.70703 0.83984 8.2109 9.3086 13.988 20.566 17.23 7.207 2.0742 15.441 3.0781 23.641 3.0078 8.1992-0.066407 16.355-1.1992 23.402-3.3945 10.742-3.3438 18.68-9.0703 19.324-17.043 0.007813-0.10156 0.019532-0.47266 0.03125-1.0117-5.8594 3.6211-13.117 6.2891-21.062 8.0117-7.207 1.5625-15.051 2.3477-22.91 2.3594-7.8438 0.011718-15.66-0.75391-22.828-2.3008-7.5938-1.6367-14.531-4.1562-20.18-7.5664zm92.809-136.64c-6.3242 5.707-15.617 9.6836-26.172 11.961-7.1719 1.5469-14.988 2.3164-22.832 2.3047-7.8594-0.011719-15.703-0.79688-22.91-2.3594-10.832-2.3477-20.391-6.4531-26.855-12.34v3.582c0 11.352 12.523 18.848 28.52 22.309 6.6797 1.4453 13.895 2.1719 21.07 2.1758 7.1836 0.003906 14.383-0.71094 21.039-2.1484 15.812-3.4141 28.137-10.812 28.137-22.066v-3.4219zm0 21.891c-6.3555 5.7461-15.703 9.75-26.312 12.043-7.1797 1.5508-15.008 2.3203-22.863 2.3164-7.8594-0.003906-15.695-0.78906-22.895-2.3438-10.77-2.3281-20.266-6.4062-26.695-12.25v3.5391c0 11.352 12.523 18.848 28.52 22.309 6.6797 1.4453 13.895 2.1719 21.07 2.1758 7.1836 0.003907 14.383-0.71094 21.039-2.1484 15.812-3.4141 28.137-10.812 28.137-22.066zm0 22.039c-6.3555 5.7461-15.703 9.75-26.312 12.043-7.1797 1.5508-15.008 2.3203-22.863 2.3164-7.8594-0.003907-15.695-0.78906-22.895-2.3438-10.77-2.3281-20.266-6.4062-26.695-12.25v3.5156c0 11.367 12.555 18.879 28.582 22.348 6.6836 1.4453 13.898 2.1758 21.078 2.1797 7.1836 0.007813 14.383-0.70703 21.035-2.1445 15.781-3.4062 28.074-10.789 28.074-22.023v-3.6406zm0 22.102c-6.3398 5.7305-15.664 9.7227-26.25 12.008-7.1758 1.5508-15.004 2.3203-22.859 2.3125-7.8594-0.007813-15.699-0.79297-22.902-2.3516-10.793-2.3359-20.316-6.4258-26.758-12.285v3.5898c0 11.328 12.473 18.797 28.422 22.246 6.6758 1.4414 13.883 2.168 21.062 2.168 7.1797 0.003906 14.387-0.71484 21.047-2.1562 15.855-3.4258 28.234-10.848 28.234-22.125v-3.4062zm0 21.883c-6.3711 5.7695-15.758 9.793-26.41 12.094-7.1836 1.5508-15.016 2.3281-22.871 2.3242-7.8594-0.003906-15.691-0.78125-22.887-2.3398-10.73-2.3203-20.188-6.3789-26.602-12.199v3.4688c0 11.387 12.586 18.914 28.645 22.391 6.6875 1.4492 13.906 2.1797 21.082 2.1875 7.1953 0.007812 14.398-0.70312 21.047-2.1367 15.738-3.3945 27.996-10.762 27.996-21.984zm0 22.25c-6.332 5.7148-15.637 9.6992-26.203 11.977-7.1758 1.5469-14.992 2.3164-22.836 2.3086-7.8594-0.007813-15.699-0.79688-22.906-2.3555-10.82-2.3438-20.367-6.4453-26.82-12.32v4.0469c0 11.203 12.223 18.555 27.934 21.945 6.6445 1.4336 13.844 2.1445 21.039 2.1328 7.1758-0.011718 14.395-0.74219 21.086-2.1914 16.09-3.4844 28.711-11.027 28.711-22.43v-3.1133z"/>
  <use x="70" y="560.085938" xlink:href="#x"/>
  <use x="70.019531" y="560.085938" xlink:href="#c"/>
  <use x="70.035156" y="560.085938" xlink:href="#a"/>
  <use x="70.054688" y="560.085938" xlink:href="#b"/>
  <use x="70.070312" y="560.085938" xlink:href="#e"/>
  <use x="70.085938" y="560.085938" xlink:href="#a"/>
  <use x="70.105469" y="560.085938" xlink:href="#i"/>
  <use x="70.132812" y="560.085938" xlink:href="#m"/>
  <use x="70.15625" y="560.085938" xlink:href="#h"/>
  <use x="70.183594" y="560.085938" xlink:href="#l"/>
  <use x="70.207031" y="560.085938" xlink:href="#w"/>
  <use x="70.214844" y="560.085938" xlink:href="#a"/>
  <use x="70.234375" y="560.085938" xlink:href="#k"/>
  <use x="70.253906" y="560.085938" xlink:href="#g"/>
  <use x="70.269531" y="560.085938" xlink:href="#b"/>
  <use x="70.289062" y="560.085938" xlink:href="#f"/>
  <use x="70.308594" y="560.085938" xlink:href="#i"/>
  <use x="70.328125" y="560.085938" xlink:href="#c"/>
  <use x="70.351562" y="560.085938" xlink:href="#j"/>
  <use x="70.375" y="560.085938" xlink:href="#b"/>
  <use x="70.390625" y="560.085938" xlink:href="#f"/>
  <use x="70.410156" y="560.085938" xlink:href="#b"/>
  <use x="70.429688" y="560.085938" xlink:href="#g"/>
  <use x="70.449219" y="560.085938" xlink:href="#d"/>
  <use x="70.464844" y="560.085938" xlink:href="#v"/>
  <use x="70.484375" y="560.085938" xlink:href="#g"/>
  <use x="70.5" y="560.085938" xlink:href="#k"/>
  <use x="70.519531" y="560.085938" xlink:href="#h"/>
  <use x="70.539062" y="560.085938" xlink:href="#u"/>
  <use x="70" y="560.113281" xlink:href="#t"/>
  <use x="70.011719" y="560.113281" xlink:href="#c"/>
  <use x="70.027344" y="560.113281" xlink:href="#d"/>
  <use x="70.046875" y="560.113281" xlink:href="#s"/>
  <use x="70.085938" y="560.113281" xlink:href="#e"/>
  <use x="70.097656" y="560.113281" xlink:href="#r"/>
  <use x="70.117188" y="560.113281" xlink:href="#a"/>
  <use x="70.144531" y="560.113281" xlink:href="#q"/>
  <use x="70.167969" y="560.113281" xlink:href="#d"/>
  <use x="70.1875" y="560.113281" xlink:href="#p"/>
  <use x="70.207031" y="560.113281" xlink:href="#f"/>
  <use x="70.238281" y="560.113281" xlink:href="#j"/>
  <use x="70.257812" y="560.113281" xlink:href="#c"/>
  <use x="70.273438" y="560.113281" xlink:href="#d"/>
  <use x="70.292969" y="560.113281" xlink:href="#o"/>
  <use x="70.300781" y="560.113281" xlink:href="#a"/>
  <use x="70.320312" y="560.113281" xlink:href="#n"/>
  <use x="70.335938" y="560.113281" xlink:href="#e"/>
 </g>
</svg>
