<?xml version="1.0" encoding="UTF-8"?>
<svg width="700pt" height="700pt" version="1.1" viewBox="0 0 700 700" xmlns="http://www.w3.org/2000/svg">
 <g>
  <path d="m402.98 280c0-52.922-43.062-96.039-96.039-96.039-52.922 0-95.984 43.121-95.984 96.039 0 52.922 43.062 96.039 95.984 96.039 52.973 0 96.039-43.117 96.039-96.039zm-183.18 0c0-48.047 39.145-87.246 87.191-87.246 48.047 0 87.191 39.199 87.191 87.246s-39.145 87.191-87.246 87.191c-47.992 0-87.137-39.145-87.137-87.191z"/>
  <path d="m380.07 280c0-40.375-32.762-73.137-73.137-73.137s-73.078 32.762-73.078 73.137c0 40.32 32.762 73.137 73.137 73.137s73.078-32.816 73.078-73.137zm-137.42 0c0-35.504 28.84-64.289 64.289-64.289 35.445 0 64.344 28.785 64.344 64.289 0 35.449-28.84 64.23-64.289 64.23-35.449 0-64.344-28.781-64.344-64.23z"/>
  <path d="m239.73 191.3c1.9609-1.457 2.3516-4.1992 0.83984-6.1602-1.5117-1.9609-4.2539-2.3516-6.2148-0.83984-30.184 22.902-47.543 57.793-47.543 95.703 0 2.4648 2.0156 4.3672 4.4258 4.3672 2.4062 0 4.4219-1.9023 4.4219-4.3672 0-35.113 16.07-67.426 44.07-88.703z"/>
  <path d="m266.67 175.95c0.55859 0 1.0625-0.11328 1.5664-0.33594 12.375-4.5938 25.426-6.8867 38.754-6.8867 2.4062 0 4.4258-2.0156 4.4258-4.4258 0-2.4648-2.0156-4.4258-4.4258-4.4258-14.391 0-28.449 2.5195-41.832 7.5039-2.2969 0.83984-3.4727 3.3594-2.6328 5.6562 0.67188 1.793 2.3516 2.9141 4.1445 2.9141z"/>
  <path d="m549.19 429.91-70.617-55.605c-0.78125-0.61719-1.7344-0.95313-2.7422-0.95313h-41.719c19.262-26.207 30.688-58.465 30.688-93.352 0-87.078-70.84-157.81-157.81-157.81s-157.81 70.73-157.81 157.81c0 87.023 70.785 157.81 157.81 157.81h239.46c1.9023 0 3.5273-1.1758 4.1992-2.9688 0.55859-1.793 0-3.75-1.457-4.9297zm-391.21-149.91c0-82.207 66.863-148.96 149.02-148.96 82.152 0 149.02 66.754 149.02 148.96 0 82.152-66.809 148.96-149.02 148.96-82.152 0-149.02-66.809-149.02-148.96zm269.14 102.14h26.879l42.727 46.816h-137.82c26.77-9.3516 50.176-25.648 68.211-46.816zm81.535 46.816-42.672-46.816h8.3438l59.359 46.816z"/>
 </g>
</svg>
