<?xml version="1.0" encoding="iso-8859-1"?>
<!-- Uploaded to: SVG Repo, www.svgrepo.com, Generator: SVG Repo Mixer Tools -->
<!DOCTYPE svg PUBLIC "-//W3C//DTD SVG 1.1//EN" "http://www.w3.org/Graphics/SVG/1.1/DTD/svg11.dtd">
<svg fill="#000000" version="1.1" id="Capa_1" xmlns="http://www.w3.org/2000/svg" xmlns:xlink="http://www.w3.org/1999/xlink" 
	 width="800px" height="800px" viewBox="0 0 48.84 48.841"
	 xml:space="preserve">
<g>
	<path d="M46.504,0H2.338C1.045,0,0,1.047,0,2.337v44.167c0,1.29,1.045,2.337,2.338,2.337h44.166c1.291,0,2.336-1.047,2.336-2.337
		V2.337C48.84,1.046,47.795,0,46.504,0z M20.395,28.928v-8.049h8.051v8.049H20.395z M28.446,33.602v10.564h-8.051V33.602H28.446z
		 M4.674,20.878h11.047v8.05H4.674V20.878z M20.395,16.204V4.674h8.051v11.53H20.395z M33.12,20.878h11.047v8.05H33.12V20.878z
		 M44.167,16.204H33.12V4.674h11.047V16.204z M15.72,4.674v11.53H4.674V4.674H15.72z M4.674,33.602h11.047v10.564H4.674V33.602z
		 M33.12,44.166V33.602h11.047v10.564H33.12z"/>
</g>
</svg>